HIERARCHY
ROOT root     
{
	OFFSET 0.0000 0.0000 0.0000
	CHANNELS 6 Xposition Yposition Zposition Zrotation Yrotation Xrotation
	JOINT pelvis   
	{
		OFFSET 0.0000 0.0000 0.0000
		CHANNELS 3 Zrotation Yrotation Xrotation
		JOINT thorax   
		{
			OFFSET 0.0000 23.0750 -5.0000
			CHANNELS 3 Zrotation Yrotation Xrotation
			JOINT rclavicle
			{
				OFFSET 0.0000 28.0009 0.0000
				CHANNELS 3 Zrotation Yrotation Xrotation
				JOINT rhumerus 
				{
					OFFSET -18.5725 5.5939 0.0000
					CHANNELS 3 Zrotation Yrotation Xrotation
					JOINT rradius  
					{
						OFFSET -24.8459 0.0000 0.0000
						CHANNELS 3 Zrotation Yrotation Xrotation
						JOINT rhand    
						{
							OFFSET -24.5477 0.0000 0.0000
							CHANNELS 3 Zrotation Yrotation Xrotation
							End Site
							{
								OFFSET -8.1826 0.0000 0.0000
							}
						}
					}
				}
			}
			JOINT lclavicle
			{
				OFFSET 0.0000 28.0009 0.0000
				CHANNELS 3 Zrotation Yrotation Xrotation
				JOINT lhumerus 
				{
					OFFSET 18.5725 5.5939 0.0000
					CHANNELS 3 Zrotation Yrotation Xrotation
					JOINT lradius  
					{
						OFFSET 24.8459 0.0000 0.0000
						CHANNELS 3 Zrotation Yrotation Xrotation
						JOINT lhand    
						{
							OFFSET 24.5477 0.0000 0.0000
							CHANNELS 3 Zrotation Yrotation Xrotation
							End Site
							{
								OFFSET 8.1826 0.0000 0.0000
							}
						}
					}
				}
			}
			JOINT head     
			{
				OFFSET 0.0000 35.2030 0.0000
				CHANNELS 3 Zrotation Yrotation Xrotation
				End Site
				{
					OFFSET 0.0000 11.7343 0.0000
				}
			}
		}
		JOINT rfemur   
		{
			OFFSET -8.2817 0.0000 0.0000
			CHANNELS 3 Zrotation Yrotation Xrotation
			JOINT rtibia   
			{
				OFFSET 0.0000 -43.3627 0.0000
				CHANNELS 3 Zrotation Yrotation Xrotation
				JOINT rfoot    
				{
					OFFSET 0.0000 -38.2947 0.0000
					CHANNELS 3 Zrotation Yrotation Xrotation
					JOINT rtoes    
					{
						OFFSET 0.0000 0.0000 16.6054
						CHANNELS 3 Zrotation Yrotation Xrotation
						End Site
						{
							OFFSET 0.0000 0.0000 5.5351
						}
					}
				}
			}
		}
		JOINT lfemur   
		{
			OFFSET 8.2817 0.0000 0.0000
			CHANNELS 3 Zrotation Yrotation Xrotation
			JOINT ltibia   
			{
				OFFSET 0.0000 -43.3627 0.0000
				CHANNELS 3 Zrotation Yrotation Xrotation
				JOINT lfoot    
				{
					OFFSET 0.0000 -38.2947 0.0000
					CHANNELS 3 Zrotation Yrotation Xrotation
					JOINT ltoes    
					{
						OFFSET 0.0000 0.0000 16.6054
						CHANNELS 3 Zrotation Yrotation Xrotation
						End Site
						{
							OFFSET 0.0000 0.0000 5.5351
						}
					}
				}
			}
		}
	}
}
MOTION
Frames: 13
Frame Time: .0333333
23.51 88.369 -7.6172 13.5996 66.7218 31.233 0 -0 0 2.41103 -14.3125 -7.00315 29.1051 -12.976 -1.88103e-05 49.3579 -5.13145 12.5581 5.48778e-06 86.9373 5.78972e-06 0.717005 3.53895 0.0221 -20.5846 11.2372 2.11034e-05 -28.1552 -0.679843 6.6892 180 -83.8224 180 8.41032 1.72666 0.127002 -2.27573 -1.103 -5.1792 6.67781 -9.93127 -38.0685 -0 -0 22.3796 2.12536e-07 -9.74115 5.5077 -0.944013 5.34386e-06 -44.3079 -7.90519 17.4127 -7.4539 -0 -0 15.6712 -1.20666e-08 0.262997 13.8627 0.0630002 1.85684e-07 -59.5505 
24.494 88.19 -7.3105 13.7015 66.0937 31.2958 0 -0 0 2.52441 -14.2917 -7.01329 29.0417 -13.0468 -6.23013e-05 49.2145 -5.35552 12.2608 -3.44536e-06 86.8315 -3.26041e-06 0.682398 3.56466 0.0211996 -20.4665 11.312 6.44848e-06 -27.5527 -0.664801 6.11023 180 -83.2615 -180 8.45096 1.60476 0.118601 -2.59579 -1.04731 -5.38503 7.24601 -9.68006 -37.9021 -0 -0 20.0268 1.98538e-06 -9.85375 5.51432 -0.956198 6.67954e-06 -45.494 -8.03087 17.6381 -6.75692 -0 -0 15.7091 -3.86807e-07 0.230303 14.1814 0.0564005 -4.72461e-08 -60.651 
25.507 87.987 -6.9868 13.8999 65.5032 31.3874 0 -0 0 2.58898 -14.315 -6.98505 28.972 -13.1115 4.1792e-06 49.0945 -5.57742 11.9798 3.63067e-06 86.7319 3.84418e-06 0.63941 3.58631 0.0200005 -20.3423 11.3899 7.10095e-05 -27.0281 -0.611153 5.52591 180 -82.7206 180 8.52148 1.50584 0.112196 -2.89053 -0.9912 -5.56904 7.79251 -9.50787 -37.5803 -0 -0 17.6908 9.99234e-06 -9.94426 5.56698 -0.9744 3.30024e-08 -46.3219 -8.15983 17.8317 -5.98792 -0 -0 15.7681 1.46137e-07 0.2071 14.5161 0.0518989 3.08056e-07 -61.739 
26.55 87.76 -6.6462 14.2029 64.9483 31.519 0 -0 0 2.60448 -14.388 -6.92214 28.8919 -13.1758 0.000150146 49.0018 -5.79746 11.7101 -3.70117e-06 86.597 -3.48763e-06 0.591811 3.59894 0.0186006 -20.2238 11.4789 9.19079e-07 -26.562 -0.538536 4.95012 180 -82.2044 180 8.62349 1.43443 0.108204 -3.16688 -0.940593 -5.72954 8.29725 -9.40834 -37.1164 -0 -0 15.4341 -2.38687e-06 -9.98895 5.68995 -1.00041 7.02125e-06 -46.7267 -8.29256 17.9771 -5.15133 -0 -0 15.8514 1.38703e-06 0.204901 14.8526 0.0524994 3.95868e-07 -62.8357 
27.62 87.507 -6.2899 14.6111 64.442 31.7039 0 -0 0 2.58133 -14.512 -6.84589 28.8001 -13.2421 5.65778e-05 48.938 -6.02216 11.4475 -3.55549e-06 86.4449 -3.34191e-06 0.544996 3.59828 0.0170997 -20.1215 11.5753 -3.69633e-05 -26.1369 -0.446682 4.39078 180 -81.7063 -180 8.75165 1.38929 0.1063 -3.43652 -0.902003 -5.86263 8.73674 -9.35843 -36.5438 -0 -0 13.3193 8.54476e-06 -9.98528 5.90127 -1.0371 2.82674e-06 -46.695 -8.42956 18.0641 -4.27217 -0 -0 15.9752 1.59166e-06 0.230999 15.1751 0.0604999 2.48389e-07 -63.9673 
28.712 87.23 -5.9196 15.105 63.9854 31.9431 0 -0 0 2.53856 -14.6833 -6.78078 28.6938 -13.3128 3.4437e-05 48.9008 -6.25236 11.1842 2.26259e-06 86.2921 2.41362e-06 0.503408 3.5821 0.0157003 -20.0576 11.6817 3.13622e-05 -25.7325 -0.347314 3.85408 180 -81.2254 -180 8.89766 1.36517 0.106196 -3.71567 -0.881002 -5.96691 9.07915 -9.30935 -35.9006 -0 -0 11.4151 2.27997e-06 -9.95414 6.20312 -1.0864 -8.9991e-06 -46.2175 -8.56827 18.0887 -3.38323 -0 -0 16.1558 -5.27007e-07 0.285804 15.4709 0.0762007 1.41429e-07 -65.1705 
29.816 86.935 -5.5381 15.659 63.5834 32.2502 0 -0 0 2.50843 -14.8913 -6.7723 28.5729 -13.389 -5.21592e-05 48.8815 -6.49384 10.9145 4.33234e-06 86.1392 4.63438e-06 0.470507 3.54989 0.0146002 -20.0564 11.7927 -5.25288e-05 -25.3336 -0.23751 3.34277 180 -80.7549 -180 9.04903 1.35096 0.1069 -4.02389 -0.881995 -6.03874 9.29386 -9.19382 -35.2431 -0 -0 9.7827 -6.54071e-06 -9.94558 6.58182 -1.15139 -5.02312e-06 -45.2523 -8.70663 18.0512 -2.54524 -0 -0 16.4231 -8.78774e-07 0.357904 15.7312 0.097 1.93946e-07 -66.4887 
30.924 86.627 -5.1475 16.2349 63.2311 32.615 0 -0 0 2.52312 -15.121 -6.84624 28.4371 -13.4707 -5.64339e-05 48.868 -6.74138 10.632 1.9331e-06 85.9737 2.51662e-06 0.446395 3.50303 0.0136998 -20.145 11.9149 -2.82785e-05 -24.9283 -0.137698 2.85708 180 -80.3177 -180 9.19305 1.3345 0.107298 -4.38033 -0.90839 -6.08236 9.35149 -8.93953 -34.6148 -0 -0 8.48014 8.76628e-06 -10.0144 6.99403 -1.23181 1.60543e-06 -43.6861 -8.83646 17.9588 -1.79869 -0 -0 16.7987 1.21877e-06 0.429096 15.9604 0.118 1.16167e-06 -67.9748 
32.027 86.314 -4.75 16.786 62.9311 33.0247 0 -0 0 2.62024 -15.3514 -7.03645 28.2886 -13.5567 -2.20164e-05 48.8465 -6.99249 10.3327 0 85.8066 0 0.428606 3.4442 0.0129002 -20.3467 12.0474 -1.04402e-05 -24.5114 -0.0553143 2.39498 180 -79.9067 -180 9.31855 1.29954 0.105904 -4.80269 -0.961299 -6.10098 9.23604 -8.4759 -34.072 -0 -0 7.55811 1.75359e-06 -10.2165 7.37728 -1.32567 1.49898e-05 -41.3324 -8.94679 17.8285 -1.19811 -0 -0 17.3096 -2.62573e-06 0.468698 16.1663 0.130501 -6.93279e-09 -69.6698 
33.111 86.004 -4.3477 17.2699 62.6757 33.479 0 -0 0 2.83803 -15.565 -7.38071 28.1272 -13.6446 -1.38955e-05 48.8047 -7.24273 10.0144 2.9625e-06 85.6113 3.51307e-06 0.409993 3.37863 0.0120998 -20.6762 12.1919 0.000106545 -24.0949 0.00429604 1.95597 180 -79.5451 -180 9.41592 1.23161 0.101401 -5.30328 -1.0403 -6.09732 8.95152 -7.75833 -33.6809 -0 -0 7.06685 8.43079e-06 -10.5861 7.64439 -1.42422 -9.71095e-06 -37.9253 -9.02628 17.6729 -0.804751 -0 -0 17.9914 1.02453e-06 0.4403 16.3678 0.124101 3.19447e-07 -71.5868 
34.177 85.705 -3.9369 17.6304 62.4594 33.9146 0 -0 0 3.19522 -15.735 -7.85739 27.9595 -13.7265 0.000143686 48.735 -7.47646 9.66759 2.80628e-06 85.3757 3.35701e-06 0.387493 3.30584 0.0111999 -21.1347 12.337 0.000131205 -23.7098 0.0500872 1.52997 180 -79.2447 180 9.47935 1.1126 0.0922019 -5.88613 -1.1412 -6.0843 8.52258 -6.78408 -33.4585 -0 -0 7.04666 -2.03206e-06 -11.1083 7.68433 -1.50394 -1.3478e-05 -33.172 -9.04701 17.5367 -0.61165 -0 -0 18.8467 1.55906e-06 0.292701 16.6157 0.0836997 -1.09802e-07 -73.7512 
35.216 85.426 -3.5173 17.8422 62.2796 34.3285 0 -0 0 3.70998 -15.8457 -8.47902 27.7845 -13.8009 -5.42406e-05 48.6333 -7.68592 9.30288 -0 85.1154 -0 0.344802 3.23351 0.00970005 -21.7198 12.4933 -5.62675e-05 -23.3808 0.0623959 1.12599 180 -79.0165 -180 9.51298 0.938592 0.0781003 -6.54487 -1.2603 -6.0676 8.00689 -5.61033 -33.4684 -0 -0 7.53544 -8.62177e-06 -11.7252 7.39823 -1.53074 1.95333e-05 -26.8849 -8.99545 17.426 -0.656286 -0 -0 19.9028 9.87777e-09 -0.00819995 16.9352 -0.00239996 2.89447e-08 -76.0785 
36.23 85.173 -3.0847 17.8775 62.1273 34.6708 0 -0 0 4.37336 -15.8855 -9.2074 27.6037 -13.8584 -9.8873e-06 48.5058 -7.85591 8.91885 -3.00519e-06 84.7961 -2.74355e-06 0.271993 3.16176 0.00749966 -22.402 12.6524 5.99662e-05 -23.157 0.0531997 0.745 180 -78.88 180 9.52385 0.705299 0.0587995 -7.26241 -1.39089 -6.0567 7.47534 -4.34416 -33.716 -0 -0 8.54061 -8.52767e-06 -12.3361 6.72573 -1.46721 8.86251e-07 -19.2019 -8.85338 17.367 -0.914532 -0 -0 21.1581 -1.14185e-06 -0.498098 17.3852 -0.148805 -1.9983e-06 -78.4857 
